<mxfile host="drawio-plugin" modified="2021-10-21T19:01:30.265Z" agent="5.0 (Windows NT 6.2; Win64; x64) AppleWebKit/537.36 (KHTML, like Gecko) Chrome/89.0.4389.114 Safari/537.36" etag="E0AyuDGD_F0AIG1iInfX" version="14.7.4" type="embed" pages="6"><diagram id="48QfPSKIX_U6BVccSqgQ" name="homepage"><mxGraphModel dx="1288" dy="1525" grid="1" gridSize="10" guides="1" tooltips="1" connect="1" arrows="1" fold="1" page="1" pageScale="1" pageWidth="850" pageHeight="1100" math="0" shadow="0"><root><mxCell id="0"/><mxCell id="1" parent="0"/><mxCell id="4" value="upbar" style="rounded=0;whiteSpace=wrap;html=1;" vertex="1" parent="1"><mxGeometry x="140" y="-10" width="550" height="110" as="geometry"/></mxCell><mxCell id="5" value="logo" style="ellipse;whiteSpace=wrap;html=1;aspect=fixed;" vertex="1" parent="1"><mxGeometry x="140" y="30" width="50" height="50" as="geometry"/></mxCell><mxCell id="7" value="register" style="rounded=0;whiteSpace=wrap;html=1;fillColor=#dae8fc;strokeColor=#6c8ebf;" vertex="1" parent="1"><mxGeometry x="620" y="60" width="50" height="25" as="geometry"/></mxCell><mxCell id="8" value="login" style="rounded=0;whiteSpace=wrap;html=1;fillColor=#dae8fc;strokeColor=#6c8ebf;" vertex="1" parent="1"><mxGeometry x="570" y="60" width="50" height="25" as="geometry"/></mxCell><mxCell id="9" value="home" style="whiteSpace=wrap;html=1;aspect=fixed;fillColor=#dae8fc;strokeColor=#6c8ebf;" vertex="1" parent="1"><mxGeometry x="210" y="30" width="45" height="45" as="geometry"/></mxCell><mxCell id="10" value="contact" style="whiteSpace=wrap;html=1;aspect=fixed;fillColor=#dae8fc;strokeColor=#6c8ebf;" vertex="1" parent="1"><mxGeometry x="500" y="32.5" width="40" height="40" as="geometry"/></mxCell><mxCell id="11" value="despre noi" style="whiteSpace=wrap;html=1;aspect=fixed;fillColor=#dae8fc;strokeColor=#6c8ebf;" vertex="1" parent="1"><mxGeometry x="310" y="30" width="45" height="45" as="geometry"/></mxCell><mxCell id="12" value="content" style="whiteSpace=wrap;html=1;aspect=fixed;" vertex="1" parent="1"><mxGeometry x="210" y="120" width="430" height="430" as="geometry"/></mxCell><mxCell id="13" value="settings&lt;br&gt;" style="whiteSpace=wrap;html=1;aspect=fixed;fillColor=#dae8fc;strokeColor=#6c8ebf;" vertex="1" parent="1"><mxGeometry x="440" y="32.5" width="40" height="40" as="geometry"/></mxCell><mxCell id="14" value="navigation button" style="rounded=0;whiteSpace=wrap;html=1;fillColor=#dae8fc;strokeColor=#6c8ebf;" vertex="1" parent="1"><mxGeometry x="730" y="300" width="80" height="40" as="geometry"/></mxCell><mxCell id="15" value="submit button" style="rounded=0;whiteSpace=wrap;html=1;fillColor=#e1d5e7;strokeColor=#9673a6;" vertex="1" parent="1"><mxGeometry x="730" y="340" width="80" height="40" as="geometry"/></mxCell><mxCell id="16" value="input" style="rounded=0;whiteSpace=wrap;html=1;fillColor=#fff2cc;strokeColor=#d6b656;" vertex="1" parent="1"><mxGeometry x="730" y="380" width="80" height="40" as="geometry"/></mxCell><mxCell id="17" value="complex input" style="rounded=0;whiteSpace=wrap;html=1;fillColor=#ffe6cc;strokeColor=#d79b00;" vertex="1" parent="1"><mxGeometry x="730" y="420" width="80" height="40" as="geometry"/></mxCell><mxCell id="18" value="legend" style="rounded=0;whiteSpace=wrap;html=1;" vertex="1" parent="1"><mxGeometry x="730" y="260" width="80" height="40" as="geometry"/></mxCell></root></mxGraphModel></diagram><diagram id="8_2chwJkqsUIfD7A2F27" name="register.page"><mxGraphModel dx="1288" dy="1525" grid="1" gridSize="10" guides="1" tooltips="1" connect="1" arrows="1" fold="1" page="1" pageScale="1" pageWidth="850" pageHeight="1100" math="0" shadow="0"><root><mxCell id="qetR7_zGuVQxAj0pGvBH-0"/><mxCell id="qetR7_zGuVQxAj0pGvBH-1" parent="qetR7_zGuVQxAj0pGvBH-0"/><mxCell id="qetR7_zGuVQxAj0pGvBH-2" value="navigation button" style="rounded=0;whiteSpace=wrap;html=1;fillColor=#dae8fc;strokeColor=#6c8ebf;" vertex="1" parent="qetR7_zGuVQxAj0pGvBH-1"><mxGeometry x="10" y="-1040" width="80" height="40" as="geometry"/></mxCell><mxCell id="qetR7_zGuVQxAj0pGvBH-3" value="submit button" style="rounded=0;whiteSpace=wrap;html=1;fillColor=#e1d5e7;strokeColor=#9673a6;" vertex="1" parent="qetR7_zGuVQxAj0pGvBH-1"><mxGeometry x="10" y="-1000" width="80" height="40" as="geometry"/></mxCell><mxCell id="qetR7_zGuVQxAj0pGvBH-4" value="input" style="rounded=0;whiteSpace=wrap;html=1;fillColor=#fff2cc;strokeColor=#d6b656;" vertex="1" parent="qetR7_zGuVQxAj0pGvBH-1"><mxGeometry x="10" y="-960" width="80" height="40" as="geometry"/></mxCell><mxCell id="qetR7_zGuVQxAj0pGvBH-5" value="complex input" style="rounded=0;whiteSpace=wrap;html=1;fillColor=#ffe6cc;strokeColor=#d79b00;" vertex="1" parent="qetR7_zGuVQxAj0pGvBH-1"><mxGeometry x="10" y="-920" width="80" height="40" as="geometry"/></mxCell><mxCell id="qetR7_zGuVQxAj0pGvBH-6" value="legend" style="rounded=0;whiteSpace=wrap;html=1;" vertex="1" parent="qetR7_zGuVQxAj0pGvBH-1"><mxGeometry x="10" y="-1080" width="80" height="40" as="geometry"/></mxCell><mxCell id="qetR7_zGuVQxAj0pGvBH-7" value="" style="rounded=0;whiteSpace=wrap;html=1;fillColor=#fff2cc;strokeColor=#d6b656;" vertex="1" parent="qetR7_zGuVQxAj0pGvBH-1"><mxGeometry x="220" y="-840" width="240" height="60" as="geometry"/></mxCell><mxCell id="qetR7_zGuVQxAj0pGvBH-8" value="" style="rounded=0;whiteSpace=wrap;html=1;fillColor=#fff2cc;strokeColor=#d6b656;" vertex="1" parent="qetR7_zGuVQxAj0pGvBH-1"><mxGeometry x="220" y="-740" width="240" height="60" as="geometry"/></mxCell><mxCell id="yITbdPwe31zWzQW3iBT5-0" value="upbar" style="rounded=0;whiteSpace=wrap;html=1;" vertex="1" parent="qetR7_zGuVQxAj0pGvBH-1"><mxGeometry x="110" y="-1042.5" width="600" height="92.5" as="geometry"/></mxCell><mxCell id="yITbdPwe31zWzQW3iBT5-1" value="logo" style="ellipse;whiteSpace=wrap;html=1;aspect=fixed;" vertex="1" parent="qetR7_zGuVQxAj0pGvBH-1"><mxGeometry x="160" y="-1021.25" width="50" height="50" as="geometry"/></mxCell><mxCell id="yITbdPwe31zWzQW3iBT5-4" value="home" style="whiteSpace=wrap;html=1;aspect=fixed;fillColor=#dae8fc;strokeColor=#6c8ebf;" vertex="1" parent="qetR7_zGuVQxAj0pGvBH-1"><mxGeometry x="260" y="-1010" width="45" height="45" as="geometry"/></mxCell><mxCell id="yITbdPwe31zWzQW3iBT5-5" value="contact" style="whiteSpace=wrap;html=1;aspect=fixed;fillColor=#dae8fc;strokeColor=#6c8ebf;" vertex="1" parent="qetR7_zGuVQxAj0pGvBH-1"><mxGeometry x="550" y="-1007.5" width="40" height="40" as="geometry"/></mxCell><mxCell id="yITbdPwe31zWzQW3iBT5-6" value="despre noi" style="whiteSpace=wrap;html=1;aspect=fixed;fillColor=#dae8fc;strokeColor=#6c8ebf;" vertex="1" parent="qetR7_zGuVQxAj0pGvBH-1"><mxGeometry x="340" y="-1007.5" width="45" height="45" as="geometry"/></mxCell><mxCell id="yITbdPwe31zWzQW3iBT5-7" value="settings&lt;br&gt;" style="whiteSpace=wrap;html=1;aspect=fixed;fillColor=#dae8fc;strokeColor=#6c8ebf;" vertex="1" parent="qetR7_zGuVQxAj0pGvBH-1"><mxGeometry x="490" y="-1007.5" width="40" height="40" as="geometry"/></mxCell><mxCell id="yITbdPwe31zWzQW3iBT5-19" value="password" style="rounded=0;whiteSpace=wrap;html=1;" vertex="1" parent="qetR7_zGuVQxAj0pGvBH-1"><mxGeometry x="222.5" y="-770" width="120" height="20" as="geometry"/></mxCell><mxCell id="yITbdPwe31zWzQW3iBT5-20" value="submit" style="rounded=0;whiteSpace=wrap;html=1;fillColor=#e1d5e7;strokeColor=#9673a6;" vertex="1" parent="qetR7_zGuVQxAj0pGvBH-1"><mxGeometry x="260" y="-510" width="120" height="60" as="geometry"/></mxCell><mxCell id="yITbdPwe31zWzQW3iBT5-21" value="" style="rounded=0;whiteSpace=wrap;html=1;fillColor=#fff2cc;strokeColor=#d6b656;" vertex="1" parent="qetR7_zGuVQxAj0pGvBH-1"><mxGeometry x="222.5" y="-640" width="240" height="60" as="geometry"/></mxCell><mxCell id="yITbdPwe31zWzQW3iBT5-22" value="repeat password" style="rounded=0;whiteSpace=wrap;html=1;" vertex="1" parent="qetR7_zGuVQxAj0pGvBH-1"><mxGeometry x="230" y="-670" width="120" height="20" as="geometry"/></mxCell><mxCell id="yITbdPwe31zWzQW3iBT5-23" value="username:" style="rounded=0;whiteSpace=wrap;html=1;" vertex="1" parent="qetR7_zGuVQxAj0pGvBH-1"><mxGeometry x="230" y="-870" width="120" height="20" as="geometry"/></mxCell><mxCell id="yITbdPwe31zWzQW3iBT5-24" value="checkbox" style="rounded=0;whiteSpace=wrap;html=1;" vertex="1" parent="qetR7_zGuVQxAj0pGvBH-1"><mxGeometry x="240" y="-550" width="120" height="20" as="geometry"/></mxCell></root></mxGraphModel></diagram><diagram id="QBdJOiBELqfhsQn6X_9K" name="login.page"><mxGraphModel dx="1288" dy="2625" grid="1" gridSize="10" guides="1" tooltips="1" connect="1" arrows="1" fold="1" page="1" pageScale="1" pageWidth="850" pageHeight="1100" math="0" shadow="0"><root><mxCell id="WaKozrHZsJp7wlysmKln-0"/><mxCell id="WaKozrHZsJp7wlysmKln-1" parent="WaKozrHZsJp7wlysmKln-0"/><mxCell id="5mCoRqvHG90-bwskRwjX-0" value="upbar" style="rounded=0;whiteSpace=wrap;html=1;" vertex="1" parent="WaKozrHZsJp7wlysmKln-1"><mxGeometry x="120" y="-1472.5" width="600" height="92.5" as="geometry"/></mxCell><mxCell id="5mCoRqvHG90-bwskRwjX-1" value="logo" style="ellipse;whiteSpace=wrap;html=1;aspect=fixed;" vertex="1" parent="WaKozrHZsJp7wlysmKln-1"><mxGeometry x="170" y="-1451.25" width="50" height="50" as="geometry"/></mxCell><mxCell id="5mCoRqvHG90-bwskRwjX-2" value="home" style="whiteSpace=wrap;html=1;aspect=fixed;fillColor=#dae8fc;strokeColor=#6c8ebf;" vertex="1" parent="WaKozrHZsJp7wlysmKln-1"><mxGeometry x="270" y="-1440" width="45" height="45" as="geometry"/></mxCell><mxCell id="5mCoRqvHG90-bwskRwjX-3" value="contact" style="whiteSpace=wrap;html=1;aspect=fixed;fillColor=#dae8fc;strokeColor=#6c8ebf;" vertex="1" parent="WaKozrHZsJp7wlysmKln-1"><mxGeometry x="560" y="-1437.5" width="40" height="40" as="geometry"/></mxCell><mxCell id="5mCoRqvHG90-bwskRwjX-4" value="despre noi" style="whiteSpace=wrap;html=1;aspect=fixed;fillColor=#dae8fc;strokeColor=#6c8ebf;" vertex="1" parent="WaKozrHZsJp7wlysmKln-1"><mxGeometry x="350" y="-1437.5" width="45" height="45" as="geometry"/></mxCell><mxCell id="5mCoRqvHG90-bwskRwjX-5" value="settings&lt;br&gt;" style="whiteSpace=wrap;html=1;aspect=fixed;fillColor=#dae8fc;strokeColor=#6c8ebf;" vertex="1" parent="WaKozrHZsJp7wlysmKln-1"><mxGeometry x="500" y="-1437.5" width="40" height="40" as="geometry"/></mxCell><mxCell id="pm16Jfxr7ePxjhJPZO0A-0" value="navigation button" style="rounded=0;whiteSpace=wrap;html=1;fillColor=#dae8fc;strokeColor=#6c8ebf;" vertex="1" parent="WaKozrHZsJp7wlysmKln-1"><mxGeometry x="20" y="-1460" width="80" height="40" as="geometry"/></mxCell><mxCell id="pm16Jfxr7ePxjhJPZO0A-1" value="submit button" style="rounded=0;whiteSpace=wrap;html=1;fillColor=#e1d5e7;strokeColor=#9673a6;" vertex="1" parent="WaKozrHZsJp7wlysmKln-1"><mxGeometry x="20" y="-1420" width="80" height="40" as="geometry"/></mxCell><mxCell id="pm16Jfxr7ePxjhJPZO0A-2" value="input" style="rounded=0;whiteSpace=wrap;html=1;fillColor=#fff2cc;strokeColor=#d6b656;" vertex="1" parent="WaKozrHZsJp7wlysmKln-1"><mxGeometry x="20" y="-1380" width="80" height="40" as="geometry"/></mxCell><mxCell id="pm16Jfxr7ePxjhJPZO0A-3" value="complex input" style="rounded=0;whiteSpace=wrap;html=1;fillColor=#ffe6cc;strokeColor=#d79b00;" vertex="1" parent="WaKozrHZsJp7wlysmKln-1"><mxGeometry x="20" y="-1340" width="80" height="40" as="geometry"/></mxCell><mxCell id="pm16Jfxr7ePxjhJPZO0A-4" value="legend" style="rounded=0;whiteSpace=wrap;html=1;" vertex="1" parent="WaKozrHZsJp7wlysmKln-1"><mxGeometry x="20" y="-1500" width="80" height="40" as="geometry"/></mxCell><mxCell id="LqY9G_POl2lhwehCe9fX-0" value="" style="rounded=0;whiteSpace=wrap;html=1;fillColor=#fff2cc;strokeColor=#d6b656;" vertex="1" parent="WaKozrHZsJp7wlysmKln-1"><mxGeometry x="290" y="-1260" width="240" height="60" as="geometry"/></mxCell><mxCell id="LqY9G_POl2lhwehCe9fX-1" value="" style="rounded=0;whiteSpace=wrap;html=1;fillColor=#fff2cc;strokeColor=#d6b656;" vertex="1" parent="WaKozrHZsJp7wlysmKln-1"><mxGeometry x="290" y="-1160" width="240" height="60" as="geometry"/></mxCell><mxCell id="LqY9G_POl2lhwehCe9fX-2" value="password" style="rounded=0;whiteSpace=wrap;html=1;" vertex="1" parent="WaKozrHZsJp7wlysmKln-1"><mxGeometry x="292.5" y="-1190" width="120" height="20" as="geometry"/></mxCell><mxCell id="LqY9G_POl2lhwehCe9fX-3" value="username:" style="rounded=0;whiteSpace=wrap;html=1;" vertex="1" parent="WaKozrHZsJp7wlysmKln-1"><mxGeometry x="300" y="-1290" width="120" height="20" as="geometry"/></mxCell><mxCell id="taQAd07q4ndl6m8-76CM-0" value="submit" style="rounded=0;whiteSpace=wrap;html=1;fillColor=#e1d5e7;strokeColor=#9673a6;" vertex="1" parent="WaKozrHZsJp7wlysmKln-1"><mxGeometry x="340" y="-1050" width="120" height="60" as="geometry"/></mxCell><mxCell id="taQAd07q4ndl6m8-76CM-1" value="wrong password error" style="rounded=0;whiteSpace=wrap;html=1;dashed=1;" vertex="1" parent="WaKozrHZsJp7wlysmKln-1"><mxGeometry x="300" y="-1080" width="120" height="20" as="geometry"/></mxCell></root></mxGraphModel></diagram><diagram id="UlFJ9r-9AALaBPoCcBKO" name="after.login"><mxGraphModel dx="1288" dy="3725" grid="1" gridSize="10" guides="1" tooltips="1" connect="1" arrows="1" fold="1" page="1" pageScale="1" pageWidth="850" pageHeight="1100" math="0" shadow="0"><root><mxCell id="t5h4ntlKS3oG1EiMdZO0-0"/><mxCell id="t5h4ntlKS3oG1EiMdZO0-1" parent="t5h4ntlKS3oG1EiMdZO0-0"/><mxCell id="8mgCA9mocodFclwpFADu-0" value="upbar" style="rounded=0;whiteSpace=wrap;html=1;" vertex="1" parent="t5h4ntlKS3oG1EiMdZO0-1"><mxGeometry x="100" y="-3250" width="600" height="92.5" as="geometry"/></mxCell><mxCell id="8mgCA9mocodFclwpFADu-1" value="logo" style="ellipse;whiteSpace=wrap;html=1;aspect=fixed;" vertex="1" parent="t5h4ntlKS3oG1EiMdZO0-1"><mxGeometry x="150" y="-3228.75" width="50" height="50" as="geometry"/></mxCell><mxCell id="8mgCA9mocodFclwpFADu-2" value="home" style="whiteSpace=wrap;html=1;aspect=fixed;fillColor=#dae8fc;strokeColor=#6c8ebf;" vertex="1" parent="t5h4ntlKS3oG1EiMdZO0-1"><mxGeometry x="250" y="-3217.5" width="45" height="45" as="geometry"/></mxCell><mxCell id="8mgCA9mocodFclwpFADu-3" value="contact" style="whiteSpace=wrap;html=1;aspect=fixed;fillColor=#dae8fc;strokeColor=#6c8ebf;" vertex="1" parent="t5h4ntlKS3oG1EiMdZO0-1"><mxGeometry x="460" y="-3212.5" width="40" height="40" as="geometry"/></mxCell><mxCell id="8mgCA9mocodFclwpFADu-4" value="despre noi" style="whiteSpace=wrap;html=1;aspect=fixed;fillColor=#dae8fc;strokeColor=#6c8ebf;" vertex="1" parent="t5h4ntlKS3oG1EiMdZO0-1"><mxGeometry x="330" y="-3215" width="45" height="45" as="geometry"/></mxCell><mxCell id="8mgCA9mocodFclwpFADu-7" value="logout" style="rounded=0;whiteSpace=wrap;html=1;fillColor=#dae8fc;strokeColor=#6c8ebf;" vertex="1" parent="t5h4ntlKS3oG1EiMdZO0-1"><mxGeometry x="600" y="-3195" width="90" height="20" as="geometry"/></mxCell><mxCell id="8mgCA9mocodFclwpFADu-8" value="contul meu" style="whiteSpace=wrap;html=1;aspect=fixed;fillColor=#dae8fc;strokeColor=#6c8ebf;" vertex="1" parent="t5h4ntlKS3oG1EiMdZO0-1"><mxGeometry x="540" y="-3212.5" width="37.5" height="37.5" as="geometry"/></mxCell><mxCell id="8mgCA9mocodFclwpFADu-9" value="profile picture" style="whiteSpace=wrap;html=1;aspect=fixed;" vertex="1" parent="t5h4ntlKS3oG1EiMdZO0-1"><mxGeometry x="640" y="-3240" width="40" height="40" as="geometry"/></mxCell><mxCell id="8mgCA9mocodFclwpFADu-10" value="ideal weight" style="rounded=0;whiteSpace=wrap;html=1;fillColor=#dae8fc;strokeColor=#6c8ebf;" vertex="1" parent="t5h4ntlKS3oG1EiMdZO0-1"><mxGeometry x="320" y="-3120" width="120" height="40" as="geometry"/></mxCell><mxCell id="8mgCA9mocodFclwpFADu-14" value="weekly menus" style="rounded=0;whiteSpace=wrap;html=1;fillColor=#dae8fc;strokeColor=#6c8ebf;" vertex="1" parent="t5h4ntlKS3oG1EiMdZO0-1"><mxGeometry x="320" y="-2960" width="120" height="40" as="geometry"/></mxCell><mxCell id="8mgCA9mocodFclwpFADu-15" value="make your own meals" style="rounded=0;whiteSpace=wrap;html=1;fillColor=#dae8fc;strokeColor=#6c8ebf;" vertex="1" parent="t5h4ntlKS3oG1EiMdZO0-1"><mxGeometry x="320" y="-3040" width="120" height="40" as="geometry"/></mxCell><mxCell id="1kcmBMuvnpCB42gkU5Rv-0" value="navigation button" style="rounded=0;whiteSpace=wrap;html=1;fillColor=#dae8fc;strokeColor=#6c8ebf;" vertex="1" parent="t5h4ntlKS3oG1EiMdZO0-1"><mxGeometry y="-3255" width="80" height="40" as="geometry"/></mxCell><mxCell id="1kcmBMuvnpCB42gkU5Rv-1" value="submit button" style="rounded=0;whiteSpace=wrap;html=1;fillColor=#e1d5e7;strokeColor=#9673a6;" vertex="1" parent="t5h4ntlKS3oG1EiMdZO0-1"><mxGeometry y="-3215" width="80" height="40" as="geometry"/></mxCell><mxCell id="1kcmBMuvnpCB42gkU5Rv-2" value="input" style="rounded=0;whiteSpace=wrap;html=1;fillColor=#fff2cc;strokeColor=#d6b656;" vertex="1" parent="t5h4ntlKS3oG1EiMdZO0-1"><mxGeometry y="-3175" width="80" height="40" as="geometry"/></mxCell><mxCell id="1kcmBMuvnpCB42gkU5Rv-3" value="complex input" style="rounded=0;whiteSpace=wrap;html=1;fillColor=#ffe6cc;strokeColor=#d79b00;" vertex="1" parent="t5h4ntlKS3oG1EiMdZO0-1"><mxGeometry y="-3135" width="80" height="40" as="geometry"/></mxCell><mxCell id="1kcmBMuvnpCB42gkU5Rv-4" value="legend" style="rounded=0;whiteSpace=wrap;html=1;" vertex="1" parent="t5h4ntlKS3oG1EiMdZO0-1"><mxGeometry y="-3295" width="80" height="40" as="geometry"/></mxCell><mxCell id="HI-OCAmD_YwlpTVmajGA-0" value="calorie calculator" style="rounded=0;whiteSpace=wrap;html=1;fillColor=#dae8fc;strokeColor=#6c8ebf;" vertex="1" parent="t5h4ntlKS3oG1EiMdZO0-1"><mxGeometry x="320" y="-2880" width="120" height="40" as="geometry"/></mxCell></root></mxGraphModel></diagram><diagram id="nsds-qwrQrrErxD4soC7" name="ideal.weight.page"><mxGraphModel dx="1288" dy="3725" grid="1" gridSize="10" guides="1" tooltips="1" connect="1" arrows="1" fold="1" page="1" pageScale="1" pageWidth="850" pageHeight="1100" math="0" shadow="0"><root><mxCell id="aQyhXpI_Iotmzn0sk4MF-0"/><mxCell id="aQyhXpI_Iotmzn0sk4MF-1" parent="aQyhXpI_Iotmzn0sk4MF-0"/><mxCell id="RuGEQduTDerfvcmNlpmX-0" value="upbar" style="rounded=0;whiteSpace=wrap;html=1;" vertex="1" parent="aQyhXpI_Iotmzn0sk4MF-1"><mxGeometry x="100" y="-3250" width="600" height="92.5" as="geometry"/></mxCell><mxCell id="RuGEQduTDerfvcmNlpmX-1" value="logo" style="ellipse;whiteSpace=wrap;html=1;aspect=fixed;" vertex="1" parent="aQyhXpI_Iotmzn0sk4MF-1"><mxGeometry x="150" y="-3228.75" width="50" height="50" as="geometry"/></mxCell><mxCell id="RuGEQduTDerfvcmNlpmX-2" value="home" style="whiteSpace=wrap;html=1;aspect=fixed;fillColor=#dae8fc;strokeColor=#6c8ebf;" vertex="1" parent="aQyhXpI_Iotmzn0sk4MF-1"><mxGeometry x="250" y="-3217.5" width="45" height="45" as="geometry"/></mxCell><mxCell id="RuGEQduTDerfvcmNlpmX-3" value="contact" style="whiteSpace=wrap;html=1;aspect=fixed;fillColor=#dae8fc;strokeColor=#6c8ebf;" vertex="1" parent="aQyhXpI_Iotmzn0sk4MF-1"><mxGeometry x="460" y="-3212.5" width="40" height="40" as="geometry"/></mxCell><mxCell id="RuGEQduTDerfvcmNlpmX-4" value="despre noi" style="whiteSpace=wrap;html=1;aspect=fixed;fillColor=#dae8fc;strokeColor=#6c8ebf;" vertex="1" parent="aQyhXpI_Iotmzn0sk4MF-1"><mxGeometry x="330" y="-3215" as="geometry"/></mxCell><mxCell id="RuGEQduTDerfvcmNlpmX-5" value="logout" style="rounded=0;whiteSpace=wrap;html=1;fillColor=#dae8fc;strokeColor=#6c8ebf;" vertex="1" parent="aQyhXpI_Iotmzn0sk4MF-1"><mxGeometry x="600" y="-3195" width="90" height="20" as="geometry"/></mxCell><mxCell id="RuGEQduTDerfvcmNlpmX-6" value="contul meu" style="whiteSpace=wrap;html=1;aspect=fixed;fillColor=#dae8fc;strokeColor=#6c8ebf;" vertex="1" parent="aQyhXpI_Iotmzn0sk4MF-1"><mxGeometry x="540" y="-3212.5" width="37.5" height="37.5" as="geometry"/></mxCell><mxCell id="RuGEQduTDerfvcmNlpmX-7" value="profile picture" style="whiteSpace=wrap;html=1;aspect=fixed;" vertex="1" parent="aQyhXpI_Iotmzn0sk4MF-1"><mxGeometry x="640" y="-3240" width="40" height="40" as="geometry"/></mxCell><mxCell id="RuGEQduTDerfvcmNlpmX-8" value="man" style="rounded=0;whiteSpace=wrap;html=1;fillColor=#dae8fc;strokeColor=#6c8ebf;" vertex="1" parent="aQyhXpI_Iotmzn0sk4MF-1"><mxGeometry x="310" y="-3120" width="100" height="30" as="geometry"/></mxCell><mxCell id="RuGEQduTDerfvcmNlpmX-9" value="female" style="rounded=0;whiteSpace=wrap;html=1;fillColor=#dae8fc;strokeColor=#6c8ebf;" vertex="1" parent="aQyhXpI_Iotmzn0sk4MF-1"><mxGeometry x="440" y="-3120" width="100" height="30" as="geometry"/></mxCell><mxCell id="RuGEQduTDerfvcmNlpmX-10" value="select option" style="rounded=1;whiteSpace=wrap;html=1;" vertex="1" parent="aQyhXpI_Iotmzn0sk4MF-1"><mxGeometry x="150" y="-3130" width="120" height="40" as="geometry"/></mxCell><mxCell id="93hmGzNHGX2reZq_gKHL-0" value="navigation button" style="rounded=0;whiteSpace=wrap;html=1;fillColor=#dae8fc;strokeColor=#6c8ebf;" vertex="1" parent="aQyhXpI_Iotmzn0sk4MF-1"><mxGeometry x="10" y="-3210" width="80" height="40" as="geometry"/></mxCell><mxCell id="93hmGzNHGX2reZq_gKHL-1" value="submit button" style="rounded=0;whiteSpace=wrap;html=1;fillColor=#e1d5e7;strokeColor=#9673a6;" vertex="1" parent="aQyhXpI_Iotmzn0sk4MF-1"><mxGeometry x="10" y="-3170" width="80" height="40" as="geometry"/></mxCell><mxCell id="93hmGzNHGX2reZq_gKHL-2" value="input" style="rounded=0;whiteSpace=wrap;html=1;fillColor=#fff2cc;strokeColor=#d6b656;" vertex="1" parent="aQyhXpI_Iotmzn0sk4MF-1"><mxGeometry x="10" y="-3130" width="80" height="40" as="geometry"/></mxCell><mxCell id="93hmGzNHGX2reZq_gKHL-3" value="complex input" style="rounded=0;whiteSpace=wrap;html=1;fillColor=#ffe6cc;strokeColor=#d79b00;" vertex="1" parent="aQyhXpI_Iotmzn0sk4MF-1"><mxGeometry x="10" y="-3090" width="80" height="40" as="geometry"/></mxCell><mxCell id="93hmGzNHGX2reZq_gKHL-4" value="legend" style="rounded=0;whiteSpace=wrap;html=1;" vertex="1" parent="aQyhXpI_Iotmzn0sk4MF-1"><mxGeometry x="10" y="-3250" width="80" height="40" as="geometry"/></mxCell><mxCell id="93hmGzNHGX2reZq_gKHL-5" value="input age" style="rounded=0;whiteSpace=wrap;html=1;" vertex="1" parent="aQyhXpI_Iotmzn0sk4MF-1"><mxGeometry x="320" y="-3040" width="110" height="20" as="geometry"/></mxCell><mxCell id="93hmGzNHGX2reZq_gKHL-7" value="input height" style="rounded=0;whiteSpace=wrap;html=1;" vertex="1" parent="aQyhXpI_Iotmzn0sk4MF-1"><mxGeometry x="320" y="-2960" width="110" height="20" as="geometry"/></mxCell><mxCell id="eFTWVSXnvEd_lq0kY4F1-0" value="" style="rounded=0;whiteSpace=wrap;html=1;fillColor=#fff2cc;strokeColor=#d6b656;" vertex="1" parent="aQyhXpI_Iotmzn0sk4MF-1"><mxGeometry x="320" y="-3010" width="180" height="40" as="geometry"/></mxCell><mxCell id="eFTWVSXnvEd_lq0kY4F1-1" value="" style="rounded=0;whiteSpace=wrap;html=1;fillColor=#fff2cc;strokeColor=#d6b656;" vertex="1" parent="aQyhXpI_Iotmzn0sk4MF-1"><mxGeometry x="320" y="-2930" width="180" height="40" as="geometry"/></mxCell><mxCell id="eFTWVSXnvEd_lq0kY4F1-3" value="submit" style="rounded=0;whiteSpace=wrap;html=1;fillColor=#e1d5e7;strokeColor=#9673a6;" vertex="1" parent="aQyhXpI_Iotmzn0sk4MF-1"><mxGeometry x="230" y="-2860" width="120" height="40" as="geometry"/></mxCell><mxCell id="eFTWVSXnvEd_lq0kY4F1-4" value="your ideal weight is:" style="rounded=0;whiteSpace=wrap;html=1;" vertex="1" parent="aQyhXpI_Iotmzn0sk4MF-1"><mxGeometry x="570" y="-2930" width="150" height="40" as="geometry"/></mxCell><mxCell id="eFTWVSXnvEd_lq0kY4F1-5" value="result" style="rounded=0;whiteSpace=wrap;html=1;" vertex="1" parent="aQyhXpI_Iotmzn0sk4MF-1"><mxGeometry x="570" y="-2870" width="150" height="60" as="geometry"/></mxCell></root></mxGraphModel></diagram><diagram id="djcP6vW6fJW2ODm1nWQ9" name="make.your.own.menu"><mxGraphModel dx="1288" dy="7025" grid="1" gridSize="10" guides="1" tooltips="1" connect="1" arrows="1" fold="1" page="1" pageScale="1" pageWidth="850" pageHeight="1100" math="0" shadow="0"><root><mxCell id="Vbt0Ff9Bb3C4dDQiD0o8-0"/><mxCell id="Vbt0Ff9Bb3C4dDQiD0o8-1" parent="Vbt0Ff9Bb3C4dDQiD0o8-0"/><mxCell id="p700wEH_4LfupyOaMrwM-0" value="upbar" style="rounded=0;whiteSpace=wrap;html=1;" vertex="1" parent="Vbt0Ff9Bb3C4dDQiD0o8-1"><mxGeometry x="110" y="-5880" width="600" height="92.5" as="geometry"/></mxCell><mxCell id="p700wEH_4LfupyOaMrwM-1" value="logo" style="ellipse;whiteSpace=wrap;html=1;aspect=fixed;" vertex="1" parent="Vbt0Ff9Bb3C4dDQiD0o8-1"><mxGeometry x="160" y="-5858.75" width="50" height="50" as="geometry"/></mxCell><mxCell id="p700wEH_4LfupyOaMrwM-2" value="home" style="whiteSpace=wrap;html=1;aspect=fixed;fillColor=#dae8fc;strokeColor=#6c8ebf;" vertex="1" parent="Vbt0Ff9Bb3C4dDQiD0o8-1"><mxGeometry x="260" y="-5847.5" width="45" height="45" as="geometry"/></mxCell><mxCell id="p700wEH_4LfupyOaMrwM-3" value="contact" style="whiteSpace=wrap;html=1;aspect=fixed;fillColor=#dae8fc;strokeColor=#6c8ebf;" vertex="1" parent="Vbt0Ff9Bb3C4dDQiD0o8-1"><mxGeometry x="470" y="-5842.5" width="40" height="40" as="geometry"/></mxCell><mxCell id="p700wEH_4LfupyOaMrwM-4" value="despre noi" style="whiteSpace=wrap;html=1;aspect=fixed;fillColor=#dae8fc;strokeColor=#6c8ebf;" vertex="1" parent="Vbt0Ff9Bb3C4dDQiD0o8-1"><mxGeometry x="340" y="-5845" width="45" height="45" as="geometry"/></mxCell><mxCell id="p700wEH_4LfupyOaMrwM-5" value="logout" style="rounded=0;whiteSpace=wrap;html=1;fillColor=#dae8fc;strokeColor=#6c8ebf;" vertex="1" parent="Vbt0Ff9Bb3C4dDQiD0o8-1"><mxGeometry x="610" y="-5825" width="90" height="20" as="geometry"/></mxCell><mxCell id="p700wEH_4LfupyOaMrwM-6" value="contul meu" style="whiteSpace=wrap;html=1;aspect=fixed;fillColor=#dae8fc;strokeColor=#6c8ebf;" vertex="1" parent="Vbt0Ff9Bb3C4dDQiD0o8-1"><mxGeometry x="550" y="-5842.5" width="37.5" height="37.5" as="geometry"/></mxCell><mxCell id="p700wEH_4LfupyOaMrwM-7" value="profile picture" style="whiteSpace=wrap;html=1;aspect=fixed;" vertex="1" parent="Vbt0Ff9Bb3C4dDQiD0o8-1"><mxGeometry x="650" y="-5870" width="40" height="40" as="geometry"/></mxCell><mxCell id="o20NkgzP6663_L70M4Fb-0" value="navigation button" style="rounded=0;whiteSpace=wrap;html=1;fillColor=#dae8fc;strokeColor=#6c8ebf;" vertex="1" parent="Vbt0Ff9Bb3C4dDQiD0o8-1"><mxGeometry x="10" y="-5910" width="80" height="40" as="geometry"/></mxCell><mxCell id="o20NkgzP6663_L70M4Fb-1" value="submit button" style="rounded=0;whiteSpace=wrap;html=1;fillColor=#e1d5e7;strokeColor=#9673a6;" vertex="1" parent="Vbt0Ff9Bb3C4dDQiD0o8-1"><mxGeometry x="10" y="-5870" width="80" height="40" as="geometry"/></mxCell><mxCell id="o20NkgzP6663_L70M4Fb-2" value="input" style="rounded=0;whiteSpace=wrap;html=1;fillColor=#fff2cc;strokeColor=#d6b656;" vertex="1" parent="Vbt0Ff9Bb3C4dDQiD0o8-1"><mxGeometry x="10" y="-5830" width="80" height="40" as="geometry"/></mxCell><mxCell id="o20NkgzP6663_L70M4Fb-3" value="complex input" style="rounded=0;whiteSpace=wrap;html=1;fillColor=#ffe6cc;strokeColor=#d79b00;" vertex="1" parent="Vbt0Ff9Bb3C4dDQiD0o8-1"><mxGeometry x="10" y="-5790" width="80" height="40" as="geometry"/></mxCell><mxCell id="o20NkgzP6663_L70M4Fb-4" value="legend" style="rounded=0;whiteSpace=wrap;html=1;" vertex="1" parent="Vbt0Ff9Bb3C4dDQiD0o8-1"><mxGeometry x="10" y="-5950" width="80" height="40" as="geometry"/></mxCell></root></mxGraphModel></diagram></mxfile>